<svg id="Layer_1" data-name="Layer 1" xmlns="http://www.w3.org/2000/svg" viewBox="0 0 1164.74 1001.62"><defs><style>.cls-1{fill:#fff;}</style></defs><path class="cls-1" d="M963.62,755.83s28.44-23.83,67.68-59.72a336.44,336.44,0,0,0,44-48.62c10.33-13.93,17.3-25.28,23.24-32.8,5.06-6.57,15.33-10.67,23.89-10.6a19.41,19.41,0,0,1,9.92,2.32,7.84,7.84,0,0,1,4,5.89,59.86,59.86,0,0,1,.57,8.45c0,16.67-6.08,40.63-27.95,63.19-6.63,6.85-10.59,15.95-13,25.82a133.88,133.88,0,0,0-3.23,31.15c0,28.38,6.15,54.92,6.19,55.12a5,5,0,1,0,9.74-2.24s-.36-1.55-.91-4.39c-1.68-8.51-5-28.27-5-48.49,0-9.95.82-20,3-28.79s5.57-16.21,10.45-21.22c23.76-24.49,30.79-51.12,30.77-70.15a69.69,69.69,0,0,0-.67-9.86,17.94,17.94,0,0,0-8.67-13,29.05,29.05,0,0,0-15.13-3.79c-11.38.07-24,4.76-31.73,14.41-6.55,8.32-13.34,19.46-23.42,33a325.9,325.9,0,0,1-42.69,47.2c-19.54,17.88-36.39,32.75-48.35,43.14-6,5.2-10.73,9.28-14,12.06s-5,4.24-5,4.24a5,5,0,1,0,6.42,7.66Z" transform="translate(-417.63 -499.19)"/><path class="cls-1" d="M1089.19,789s.72.57,2,1.65c4.6,3.74,16.28,13.47,27.35,24.28a190.93,190.93,0,0,1,15.13,16.36c4.23,5.23,7.25,10.18,8.17,13.35a104.32,104.32,0,0,1,4.61,29.72c0,2.34-.1,4.16-.2,5.37l-.13,1.34,0,.35A5,5,0,0,0,1156,883a62.55,62.55,0,0,0,.49-8.58,114,114,0,0,0-5-32.6c-1.94-6.24-6.41-12.54-12-19.2-16.68-19.73-44-41.28-44.08-41.39a5,5,0,1,0-6.21,7.83Z" transform="translate(-417.63 -499.19)"/><path class="cls-1" d="M1057.33,758.23c-8.28-5.4-18.75-7.91-30.13-9.27s-23.77-1.45-35.85-1.46h-8.09c-17.6,0-34-.4-43.61-4a36.58,36.58,0,0,1-14.25-9.15c-5.56-5.7-9.52-13.27-14.31-21.59s-10.51-17.31-20-25.08c-10.83-8.84-22.61-25-35-44.63s-25.53-42.77-39.76-65.78a251.87,251.87,0,0,0-41.82-50.51c-16.94-15.38-35.44-27.45-53.53-27.61a33.32,33.32,0,0,0-24.26,10.2c-6.93,7-12.3,17.37-16.12,31.77-6.75,25.47-9.5,46.63-9.49,66.29,0,23.4,3.88,44.56,9.25,68.27s12.26,50.07,18.48,84.25c5.45,29.86,11.42,51.6,19.71,67.36s19.33,25.56,33.75,29.85c3.27,1,6.82,4.14,9.53,9.61s4.43,12.89,4.43,21.36a72.74,72.74,0,0,1-8.6,33.58c-9.34,17.8-12.46,38.4-12.47,58.68,0,34.37,9,68.17,13.72,86.54a66,66,0,0,1,2.14,16.62c.06,21.78-11,46.44-34.81,82.72-15.6,23.89-23.77,54.18-28.23,78.6A330,330,0,0,0,693,1288a5,5,0,0,0,7.3,4.61l.78-.39c8.16-4,79.9-37.75,188.39-37.74,57.87,0,126.2,9.57,201.06,38.36a5,5,0,0,0,6.22-7c-9.24-17.68-12.34-35.68-12.35-53.39,0-16.83,2.84-33.36,5.9-48.74s6.35-29.59,7-42.15c.91-17.6,4.39-30.68,7.58-39.3a80.72,80.72,0,0,1,4.23-9.59c.55-1,1-1.8,1.3-2.29l.32-.51.07-.11-.26-.17.25.18h0l-.26-.17.25.18-4.11-2.84.21,5c43-1.87,76-1.57,102.89-2.37s47.89-2.68,66.66-9.21c9.58-3.34,16.12-7.83,20.4-13,6.48-7.76,7.36-16.42,7.84-22.52a42.76,42.76,0,0,1,.83-7l.48-1.15.33-.24a19.64,19.64,0,0,0,8.42-6.89c3-4.24,4.33-9,5.28-13.25s1.45-8.14,2.06-10.13c.38-1.48,1.78-3.55,3.47-6.6a25.52,25.52,0,0,0,3.31-12.57,39.06,39.06,0,0,0-2.72-13.45c-4-10.68-13.39-18.94-26.7-26.93s-31-15.77-52.64-24.71c-21.32-8.8-52.07-23.61-77.4-36.18-12.67-6.29-24-12-32.16-16.19s-13.12-6.74-13.13-6.75a5,5,0,0,0-4.61,8.88c.07,0,80,41.5,123.48,59.49,21.5,8.87,38.85,16.56,51.33,24s19.88,14.67,22.44,21.81a29,29,0,0,1,2.11,10,15.33,15.33,0,0,1-2.12,7.83c-1.21,2.34-3.11,4.79-4.25,8.51-1.25,4.38-1.71,9.72-3.17,14.44a21.24,21.24,0,0,1-2.74,6,9.6,9.6,0,0,1-4.16,3.45,10.84,10.84,0,0,0-5.37,4.92c-1.82,3.56-1.91,7-2.22,10.38-.38,5.15-.8,10.35-3.39,15.05s-7.35,9.41-18.3,13.28c-17.06,6-37,7.87-63.65,8.66s-59.78.5-103,2.38a5,5,0,0,0-3.9,2.15c-.4.58-13.32,19.63-15.25,57-.56,11.19-3.73,25.18-6.83,40.72s-6.1,32.74-6.1,50.69c0,18.87,3.36,38.66,13.5,58l4.43-2.32,1.79-4.66c-76.07-29.26-145.68-39-204.65-39-118,0-193.3,39-193.77,39.26l2.3,4.43,5,.17s0-1.06.16-3.1c.78-14.29,6.22-75.06,31.52-113.48,24-36.71,36.37-62.85,36.43-88.19a75.61,75.61,0,0,0-2.45-19.11c-4.72-18.33-13.41-51.37-13.4-84.05,0-19.27,3-38.29,11.32-54a82.59,82.59,0,0,0,9.74-38.23c0-9.81-1.95-18.68-5.46-25.8s-8.71-12.62-15.59-14.74c-11.79-3.64-20.27-10.83-27.81-25s-13.37-35.06-18.71-64.48c-6.3-34.56-13.25-61.19-18.57-84.67s-9-43.79-9-66.06c0-18.72,2.59-38.92,9.16-63.73,3.51-13.33,8.33-22.07,13.53-27.28A23.21,23.21,0,0,1,721,509.19c13.28-.17,30.78,10.2,46.78,25a242.64,242.64,0,0,1,40.06,48.39c14.11,22.81,27.23,45.93,39.82,65.87s24.59,36.7,37.09,47c10.71,8.78,16,19.62,22.29,30.42a78.75,78.75,0,0,0,11.16,15.48,46.8,46.8,0,0,0,18,11.59c12.42,4.44,29.25,4.52,47,4.57h8.09c12,0,24.06.13,34.68,1.39s19.72,3.67,25.81,7.7a5,5,0,0,0,5.49-8.36Z" transform="translate(-417.63 -499.19)"/><path class="cls-1" d="M1020.3,1059.15l1.32-.17a169.23,169.23,0,0,1,19.1-1,207.57,207.57,0,0,1,40.75,4c19.83,4,63.13,8.23,103.28,8.24a362.89,362.89,0,0,0,45.87-2.5c13.56-1.85,24.69-4.53,32.29-9.44,10.71-7,17.07-13.61,20.8-19.4s4.73-10.79,4.72-14.16a13.24,13.24,0,0,0-.65-4.41,5,5,0,0,0-9.4,3.42l2.45-.89-2.51.7.06.19,2.45-.89-2.51.7.11,1.18c0,1.5-.37,4.43-3.13,8.75s-8,10-17.88,16.45c-5,3.36-15.26,6.23-28.11,7.88s-28.41,2.42-44.56,2.42c-39.37,0-82.67-4.25-101.3-8a217.61,217.61,0,0,0-42.73-4.23,162.48,162.48,0,0,0-21.9,1.27,5,5,0,0,0,1.48,9.89Z" transform="translate(-417.63 -499.19)"/><path class="cls-1" d="M1255.19,1001.9l.71,5a29.59,29.59,0,0,0,8.22-2.76,34,34,0,0,0,14.1-12.93c2.74-4.53,6.34-6.07,8.4-6a2.89,2.89,0,0,1,2.16.74,4,4,0,0,1,1,2.89v.46a7.21,7.21,0,0,1-.7,3.38c-.66,1.25-1.78,2.43-4.65,3.55s-7.3,1.85-13.54,1.84a125.55,125.55,0,0,1-15.09-1l-.62,5,.71,5-.71-5-.61,5a135.18,135.18,0,0,0,16.32,1.13c9.32,0,16.14-1.35,21.25-4.55a16.24,16.24,0,0,0,5.84-6.28,17.39,17.39,0,0,0,1.8-7.94l0-.84a13.94,13.94,0,0,0-4-9.69,12.92,12.92,0,0,0-9.12-3.56c-6.37,0-12.74,3.92-16.95,10.84a24,24,0,0,1-10,9.15,23.38,23.38,0,0,1-3.92,1.52l-1.08.27-.22,0,.06.37,0-.37h0l.06.37,0-.37a5,5,0,0,0,.09,9.91Z" transform="translate(-417.63 -499.19)"/><path class="cls-1" d="M1077.26,918.08a156,156,0,0,0,6.31-42.87c0-15.62-2.79-33.21-12.77-47.88s-27.3-25.82-54.08-28.24a5,5,0,1,0-.92,10c24.57,2.36,38.38,11.77,46.74,23.92s11,27.78,11,42.24a144.44,144.44,0,0,1-2.94,28.08c-.73,3.65-1.46,6.62-2,8.66-.27,1-.5,1.81-.65,2.33l-.23.75a5,5,0,1,0,9.52,3.05Z" transform="translate(-417.63 -499.19)"/><path class="cls-1" d="M1036.35,863.9a206.79,206.79,0,0,0-8.38-26.42c-1.44-4.17-4.18-6-8.61-5.21a83.24,83.24,0,0,0-9.36,2.23,35,35,0,0,0-20,14.78c-2.77,4.28-6.32,7.69-11.26,9.44-2.91,1-5.82,2-8.68,3.21-2.62,1-5.23,2.17-7.74,3.46l-1.4,2.13,1.76,1.94a8.57,8.57,0,0,0,3.17.5c2.3.06,4.62-.12,6.9.06s4.94.25,7.11,1.14c5.58,2.28,11,4.91,16.46,7.55,4.61,2.23,9.07,4.56,14.5,4.27,1.58-.09,13.33.87,15.74-4.08-1.29-.35-10.35-3.89-12.95-3.59a14.05,14.05,0,0,1-8.76-.41h0c-6.87-2.07-12.07-6.44-17-11.48,1.53-1.86,2.6-1.46,3.57-.59,1.6,1.43,3.19,2.89,4.68,4.44a19.28,19.28,0,0,0,9.1,5.57l.12,0,1,.22a17.8,17.8,0,0,0,2.8.22c4.41-.07,12.85-3.81,16.1-5.33l1.34-.64c.2,2.45.34,4.24.49,6,.79-1.37,1.58-2.74,2.44-4.21,1.4.72,2.92,1.5,4.32,2.24C1036.7,869.2,1037.09,867,1036.35,863.9ZM1024.59,860c-2.63-.57-4.5.62-6,2.37-3.09,3.66-7.14,4.72-11.57,4.28a13.72,13.72,0,0,1-11.51-7.77c-1.39-2.75-.69-4.26,2.37-6a53.65,53.65,0,0,0,1.59,5.65c1.27,3.25,3.49,4.31,7.3,5.14,5,1.08,14.93-3.53,12.59-10-1-2.9-2.61-3-4.89-1l-2.14,1.93c-1.64-1.41-1.38-2.45-.59-3.58,2.09-3,4.15-6,6.33-9.12,7.65,3.42,8.39,14.09,8.75,15.91A1.85,1.85,0,0,1,1024.59,860Z" transform="translate(-417.63 -499.19)"/><path class="cls-1" d="M817.34,930.13s.45.45,1.36,1.4c6.35,6.69,33.81,36.93,56.44,82.25,13.56,27.09,35.31,51.84,57.46,71.38S977.24,1119,993.07,1125a5,5,0,0,0,3.53-9.36c-13.94-5.23-36-19.07-57.39-38s-42.43-42.91-55.12-68.35c-26.63-53.26-59.45-86-59.68-86.26a5,5,0,0,0-7.07,7.08Z" transform="translate(-417.63 -499.19)"/><path class="cls-1" d="M557.37,1489.62a7.47,7.47,0,1,1-14.93,0V1380.14q-19.28,2.92-33.38,19.29T495,1435.09a7.44,7.44,0,0,1-7.46,7.46,7.4,7.4,0,0,1-5.29-2.07,6.85,6.85,0,0,1-2.17-5.18q0-19.29-14.21-35.77t-33.27-19.18v109.27a7.47,7.47,0,1,1-14.93,0V1372.89q0-7.67,10.36-7.67,7,0,16.59,3.94,28.82,11.61,42.5,37.73,13.69-26.12,43.13-37.94,9.52-3.73,16.59-3.73,10.56,0,10.57,7.67Z" transform="translate(-417.63 -499.19)"/><path class="cls-1" d="M708.3,1490.65a6.55,6.55,0,0,1-2.38,5.29,8.42,8.42,0,0,1-5.5,2q-5.8,0-7-6.22c-.14-.69-.2-4.28-.2-10.78q-15.76,17-37.74,17a52.92,52.92,0,1,1,52.87-53.08ZM693,1444.83a36.54,36.54,0,0,0-11-26.64,37.54,37.54,0,0,0-53.28,0,36.5,36.5,0,0,0-11,26.64,37.63,37.63,0,0,0,75.26,0Z" transform="translate(-417.63 -499.19)"/><path class="cls-1" d="M803.46,1392h13.47a7.78,7.78,0,0,1,5.5,2.26,7.08,7.08,0,0,1,2.38,5.31,7.41,7.41,0,0,1-7.49,7.57H803.59a37.76,37.76,0,0,0-37.87,37.73v45a6.92,6.92,0,0,1-2.35,5.29,7.75,7.75,0,0,1-5.42,2.18q-7.58,0-7.57-7.26v-45.2A53.11,53.11,0,0,1,803.46,1392h0Z" transform="translate(-417.63 -499.19)"/><path class="cls-1" d="M883.9,1490.45a6.5,6.5,0,0,1-2.46,5.18,8.32,8.32,0,0,1-5.52,2.07,6.74,6.74,0,0,1-5.21-2.38,7.93,7.93,0,0,1-2.15-5.5V1358a6.89,6.89,0,0,1,2.24-5.08,7.49,7.49,0,0,1,10.75.21,7.63,7.63,0,0,1,2.35,5.49Z" transform="translate(-417.63 -499.19)"/><path class="cls-1" d="M1035.66,1490.65a6.53,6.53,0,0,1-2.39,5.29,8.39,8.39,0,0,1-5.49,2q-5.81,0-7-6.22-.21-1-.21-10.78-15.75,17-37.73,17a52.92,52.92,0,1,1,52.87-53.08Zm-15.35-45.82a36.53,36.53,0,0,0-11-26.64,37.54,37.54,0,0,0-53.28,0,36.5,36.5,0,0,0-11,26.64,37.63,37.63,0,0,0,75.25,0Z" transform="translate(-417.63 -499.19)"/><path class="cls-1" d="M1097.23,1486.92a9.89,9.89,0,0,1-2.8,6.95,9.1,9.1,0,0,1-6.94,3,9.91,9.91,0,0,1-6.84-2.59,8.38,8.38,0,0,1-2.91-6.53,10.07,10.07,0,0,1,2.91-7,9.06,9.06,0,0,1,6.84-3.11,9.73,9.73,0,0,1,6.84,2.7A8.67,8.67,0,0,1,1097.23,1486.92Z" transform="translate(-417.63 -499.19)"/><path class="cls-1" d="M1272.22,1430.94q0,27.16-21.36,48.52t-48.51,21.35q-27.16,0-48.52-21.35t-21.35-48.52q0-27.17,21.35-48.51t48.52-21.36q27.15,0,48.51,21.36T1272.22,1430.94Zm-14.93.11q0-21.12-17-38t-37.94-16.86q-21,0-37.95,16.86t-17,38q0,20.9,17,37.76t37.95,16.87q20.93,0,37.94-16.87T1257.29,1431.05Z" transform="translate(-417.63 -499.19)"/><path class="cls-1" d="M1445.33,1489.62a7.47,7.47,0,1,1-14.93,0v-61.47a50.69,50.69,0,0,0-101.38.09v61.37a7.44,7.44,0,0,1-7.46,7.46,7.35,7.35,0,0,1-5.29-2.08,6.87,6.87,0,0,1-2.18-5.19v-61.67q0-27.2,19.25-46.51t46.37-19.31q27.12,0,46.37,19.28t19.25,46.44Z" transform="translate(-417.63 -499.19)"/><path class="cls-1" d="M1556.46,1378.28q-18.87,0-34.11,13.15t-18.14,31.84h70.7a7.17,7.17,0,0,1,5.29,2.21,7.7,7.7,0,0,1,0,10.72,7.17,7.17,0,0,1-5.29,2.21h-70.7q3.11,18.87,18.24,32t34,13.16h15.75a7.44,7.44,0,0,1,7.47,7.47,7.42,7.42,0,0,1-2.07,5.28,6.63,6.63,0,0,1-5,2.18q-2.91,0-8.09.21h-8.08q-27.17,0-47.48-20.32t-20.32-47.48q0-27.17,20.32-47.48t47.48-20.31Zm0,0h16a7.11,7.11,0,0,0,5.29-2.21,7.67,7.67,0,0,0,0-10.71,7.11,7.11,0,0,0-5.29-2.21h-16Z" transform="translate(-417.63 -499.19)"/></svg>