<?xml version="1.0" standalone="no"?>
<!DOCTYPE svg PUBLIC "-//W3C//DTD SVG 20010904//EN"
 "http://www.w3.org/TR/2001/REC-SVG-20010904/DTD/svg10.dtd">
<svg version="1.0" xmlns="http://www.w3.org/2000/svg"
 width="794.000000pt" height="794.000000pt" viewBox="0 0 794.000000 794.000000"
 preserveAspectRatio="xMidYMid meet">
<metadata>
Created by potrace 1.14, written by Peter Selinger 2001-2017
</metadata>
<g transform="translate(0.000000,794.000000) scale(0.100000,-0.100000)"
fill="#000000" stroke="none">
<path d="M1080 7926 c-19 -7 -48 -18 -63 -25 -49 -19 -134 -118 -177 -203 -22
-44 -40 -88 -40 -97 0 -10 -3 -21 -7 -25 -4 -3 -8 -12 -10 -19 -1 -7 -12 -50
-24 -97 -11 -47 -23 -96 -25 -110 -3 -14 -7 -32 -9 -40 -2 -8 -7 -37 -11 -65
-3 -27 -8 -52 -9 -55 -27 -45 -26 -546 1 -672 3 -13 7 -36 9 -53 4 -38 12 -78
31 -168 8 -39 18 -83 20 -97 3 -14 9 -41 14 -60 5 -19 11 -46 14 -60 4 -20 57
-251 71 -310 20 -85 54 -243 59 -272 3 -21 10 -57 15 -80 12 -54 20 -95 26
-133 3 -16 7 -37 8 -45 2 -8 7 -33 11 -55 5 -22 14 -61 21 -87 8 -27 12 -48
10 -48 -3 0 0 -12 6 -27 6 -16 13 -37 15 -48 7 -29 9 -35 26 -90 89 -284 231
-463 409 -516 49 -15 96 -62 121 -119 28 -64 30 -74 34 -180 5 -135 -12 -205
-91 -376 -84 -181 -110 -315 -110 -574 0 -137 7 -255 19 -315 2 -11 7 -42 11
-70 4 -27 9 -59 11 -70 2 -11 6 -32 8 -47 2 -14 7 -34 10 -45 3 -10 8 -34 11
-53 3 -19 15 -69 26 -111 11 -42 21 -85 23 -95 2 -11 9 -39 16 -64 22 -81 19
-268 -6 -340 -3 -8 -5 -15 -4 -15 1 0 -13 -40 -30 -89 -47 -132 -115 -259
-285 -531 -52 -83 -145 -264 -145 -282 0 -3 -6 -19 -14 -36 -32 -69 -102 -326
-121 -437 -5 -34 -10 -57 -21 -110 -2 -14 -7 -45 -9 -70 -3 -25 -7 -58 -9 -75
-3 -16 -8 -75 -11 -131 -6 -86 -5 -103 10 -117 23 -23 37 -22 109 12 59 27
191 81 211 86 6 1 22 7 36 13 14 6 75 25 135 42 60 17 116 34 124 37 8 3 20 7
25 9 27 7 314 74 340 79 93 16 265 45 300 49 230 28 400 39 660 39 182 1 395
-7 485 -18 19 -2 62 -7 95 -10 115 -12 197 -23 235 -30 14 -3 41 -7 60 -10 19
-3 62 -11 95 -17 33 -6 70 -12 82 -13 11 -2 30 -6 42 -10 11 -3 33 -9 48 -11
52 -9 188 -42 283 -68 176 -48 197 -54 376 -116 256 -88 251 -87 270 -69 23
24 19 45 -30 164 -24 61 -47 127 -50 149 -4 21 -8 42 -11 46 -7 12 -19 159
-18 240 0 83 12 260 18 270 2 3 6 24 9 46 2 21 7 50 10 64 9 40 17 83 21 118
2 18 8 47 14 65 6 17 13 48 16 67 3 19 7 46 10 60 3 14 7 41 10 60 3 19 8 46
10 60 2 14 7 61 10 105 7 96 15 161 29 230 16 80 80 254 95 256 17 3 194 9
431 13 357 7 705 17 760 21 138 9 205 17 290 36 52 11 105 22 118 25 57 12
192 73 192 86 0 5 5 8 12 8 23 0 97 90 116 143 12 30 24 83 28 118 4 35 8 69
8 75 1 7 28 36 59 66 31 29 57 61 57 71 0 9 5 17 10 17 6 0 9 3 8 8 -1 4 1 21
5 37 11 46 18 77 23 110 3 17 15 46 27 65 48 77 58 158 31 251 -51 176 -212
297 -634 479 -91 39 -184 80 -207 91 -24 10 -45 19 -48 19 -16 0 -791 368
-814 387 -2 1 -6 39 -7 83 -4 109 -27 240 -56 315 -35 91 -139 214 -350 410
-57 54 -76 78 -81 105 -3 19 -8 46 -11 60 -38 199 -48 520 -20 640 3 14 8 35
10 48 14 76 59 171 106 223 13 14 41 46 62 70 104 118 214 342 232 474 2 17 6
41 9 55 7 30 7 118 0 183 -9 84 -48 137 -121 165 -89 34 -202 26 -308 -22 -84
-39 -106 -64 -304 -346 -43 -62 -178 -238 -210 -274 -44 -50 -314 -319 -363
-361 -51 -45 -233 -208 -239 -215 -3 -3 -36 -32 -75 -65 -38 -33 -83 -72 -100
-86 -145 -127 -158 -137 -184 -133 -14 1 -44 5 -66 8 -60 7 -135 35 -182 67
-58 40 -106 99 -171 209 -92 158 -125 200 -259 335 -88 89 -154 168 -210 250
-46 66 -86 125 -90 131 -8 10 -27 43 -47 79 -6 11 -14 22 -17 25 -3 3 -36 57
-74 120 -37 63 -81 135 -96 159 -16 24 -34 57 -41 72 -7 16 -16 29 -20 29 -5
0 -8 5 -8 11 0 6 -15 34 -34 62 -18 29 -45 72 -60 97 -15 25 -32 54 -39 65
-15 24 -139 198 -147 205 -3 3 -32 37 -65 75 -77 90 -174 187 -250 250 -33 28
-62 52 -65 55 -17 19 -132 87 -193 115 -118 54 -241 70 -317 41z m241 -118
c58 -24 160 -80 181 -101 7 -7 33 -27 58 -45 99 -72 252 -233 378 -399 55 -72
110 -158 249 -388 77 -130 152 -254 168 -281 179 -301 298 -460 465 -624 92
-90 118 -123 180 -230 116 -198 179 -267 297 -321 109 -50 181 -59 570 -64
158 -3 306 -7 328 -9 127 -13 172 -24 256 -63 64 -29 103 -26 112 9 9 33 -8
54 -65 82 -122 59 -245 77 -556 81 -117 1 -216 5 -219 9 -3 3 6 16 22 28 15
12 38 32 51 45 13 13 25 23 28 23 3 0 18 12 34 28 28 26 46 43 186 166 37 33
80 71 96 85 15 14 69 64 120 111 223 205 351 349 515 580 49 69 112 157 140
197 59 83 84 105 157 137 71 31 183 31 224 0 36 -27 43 -55 39 -167 -5 -131
-29 -225 -90 -347 -33 -66 -113 -183 -144 -210 -9 -8 -39 -44 -67 -80 -132
-173 -168 -467 -109 -896 5 -40 5 -41 -23 -36 -31 4 -62 -18 -62 -45 0 -17 33
-50 130 -133 124 -106 267 -244 313 -303 12 -15 30 -38 40 -50 40 -48 87 -151
77 -169 -1 -2 3 -15 9 -30 14 -37 27 -151 22 -194 0 -7 -52 15 -113 47 -62 32
-121 59 -131 59 -36 0 -59 -45 -39 -77 19 -29 749 -391 1150 -569 79 -35 146
-64 149 -64 2 0 29 -11 59 -25 30 -14 57 -25 60 -25 8 0 90 -38 209 -97 122
-61 256 -147 296 -190 45 -49 79 -118 85 -172 5 -45 1 -61 -24 -114 -30 -62
-50 -124 -57 -175 -7 -60 -37 -113 -81 -143 -51 -35 -64 -55 -70 -112 -11
-108 -16 -135 -33 -172 -23 -51 -63 -91 -123 -121 -59 -30 -156 -62 -208 -69
-8 -1 -28 -5 -45 -8 -141 -30 -208 -34 -1080 -52 -370 -8 -413 -11 -431 -26
-17 -14 -84 -152 -84 -173 0 -7 -3 -16 -7 -20 -4 -3 -8 -12 -9 -19 -3 -13 -5
-21 -24 -102 -7 -27 -14 -60 -15 -72 -2 -13 -6 -40 -9 -60 -3 -21 -8 -72 -11
-113 -3 -41 -12 -115 -21 -165 -8 -49 -17 -103 -20 -120 -2 -16 -7 -37 -9 -45
-2 -8 -7 -31 -10 -50 -3 -19 -10 -51 -15 -70 -5 -19 -11 -53 -15 -75 -3 -22
-10 -67 -15 -100 -18 -116 -22 -171 -23 -300 0 -140 6 -204 30 -305 8 -36 16
-72 18 -80 2 -8 8 -28 14 -43 6 -16 11 -32 11 -36 0 -4 -79 19 -176 51 -96 32
-185 60 -197 63 -12 3 -80 21 -152 40 -71 19 -143 38 -160 41 -16 3 -70 14
-120 25 -49 11 -103 22 -120 24 -16 2 -39 6 -50 8 -30 7 -86 16 -127 22 -21 3
-54 7 -74 10 -19 3 -56 8 -82 11 -26 3 -65 8 -87 10 -302 37 -891 37 -1160 0
-16 -2 -57 -7 -90 -11 -32 -4 -68 -9 -79 -11 -11 -2 -38 -6 -61 -9 -22 -4 -56
-9 -75 -12 -29 -4 -140 -27 -290 -59 -14 -3 -50 -12 -80 -20 -30 -8 -64 -17
-74 -19 -127 -29 -420 -131 -510 -177 -18 -10 -18 -6 -12 73 3 46 8 95 10 109
3 14 12 66 20 115 19 106 20 111 41 195 9 36 18 75 21 87 26 126 142 398 217
510 57 85 157 252 157 262 0 5 4 11 8 13 21 9 132 263 157 358 23 88 25 98 30
155 11 127 6 173 -36 339 -17 67 -33 130 -35 141 -2 11 -11 54 -19 95 -24 117
-25 123 -30 163 -3 21 -7 48 -10 60 -27 120 -27 456 1 586 3 14 7 39 10 55 8
41 52 162 79 216 55 111 76 174 90 280 21 154 -3 286 -71 396 -37 60 -67 83
-151 117 -89 36 -148 81 -198 148 -46 62 -103 175 -125 244 -7 22 -16 49 -21
60 -7 17 -25 80 -35 120 -31 131 -72 326 -80 385 -3 19 -11 63 -19 96 -8 34
-16 73 -19 85 -3 13 -9 47 -15 74 -5 28 -21 100 -36 160 -14 61 -27 117 -29
125 -2 8 -6 26 -9 40 -35 136 -92 404 -103 485 -3 22 -8 51 -10 65 -24 129
-24 495 0 615 2 11 7 42 10 69 4 27 9 52 11 56 2 3 6 25 10 50 4 25 9 48 12
53 3 4 7 23 10 40 6 41 70 229 80 236 5 3 15 19 23 35 28 55 85 101 160 130
29 11 148 -4 201 -26z"/>
<path d="M4101 4932 c-20 -14 -22 -58 -3 -75 10 -8 40 -18 67 -21 223 -31 381
-131 460 -291 50 -103 52 -108 69 -230 12 -85 13 -192 2 -280 -15 -114 -19
-142 -27 -162 -5 -13 -7 -23 -5 -23 2 0 -2 -19 -9 -42 -12 -43 -5 -88 14 -88
5 0 16 -2 23 -5 8 -3 23 3 34 14 23 21 58 169 72 302 14 133 5 325 -19 386 -5
13 -7 23 -4 23 8 0 -25 84 -61 156 -60 120 -176 225 -309 281 -102 43 -275 74
-304 55z"/>
<path d="M4081 4590 c-94 -28 -152 -69 -214 -153 -42 -56 -66 -75 -116 -93
-25 -10 -74 -30 -108 -45 -95 -43 -84 -61 42 -69 67 -5 95 -13 170 -49 154
-74 175 -80 256 -77 70 2 119 17 119 35 0 13 -81 34 -142 36 -38 2 -75 11
-110 28 -63 31 -130 85 -123 98 10 15 17 11 69 -36 82 -74 135 -81 254 -32 34
13 60 22 57 18 -2 -4 1 -13 6 -21 8 -11 12 -12 15 -3 4 9 13 9 31 2 34 -13 54
13 46 61 -9 64 -84 277 -104 299 -24 26 -61 26 -148 1z m129 -139 c10 -21 20
-56 22 -77 3 -34 0 -39 -19 -40 -13 -1 -33 -9 -45 -18 -13 -9 -32 -23 -43 -30
-77 -55 -225 16 -200 95 10 29 21 23 35 -20 9 -30 21 -43 49 -55 51 -23 118
-6 146 38 28 43 -7 95 -41 61 -35 -35 -41 -9 -9 40 49 75 69 76 105 6z"/>
<path d="M2140 3693 c-23 -30 -22 -32 50 -114 30 -34 77 -90 104 -123 27 -34
54 -64 60 -68 6 -4 7 -8 3 -8 -4 0 4 -12 18 -27 14 -15 25 -31 25 -34 0 -3 10
-18 23 -32 12 -15 59 -84 103 -154 77 -121 107 -173 212 -373 25 -47 59 -105
75 -130 36 -54 128 -180 142 -196 5 -6 28 -33 50 -60 79 -97 266 -278 392
-379 72 -58 124 -96 203 -149 47 -31 90 -60 96 -65 24 -19 203 -101 222 -101
42 0 68 54 39 78 -7 6 -51 30 -98 53 -73 37 -234 133 -249 149 -3 3 -41 32
-85 64 -151 112 -345 296 -454 431 -31 38 -64 79 -74 90 -38 42 -128 187 -202
325 -181 337 -346 576 -555 803 -45 48 -73 54 -100 20z"/>
<path d="M6783 3169 c-34 -10 -73 -45 -141 -126 -33 -41 -55 -57 -101 -73 -46
-17 -60 -27 -64 -46 -10 -54 31 -71 178 -73 108 -2 199 16 244 48 93 66 89
228 -6 267 -37 16 -64 16 -110 3z m81 -121 c17 -48 -33 -85 -126 -93 -16 -1
-28 -1 -28 2 0 2 16 25 36 51 57 76 100 90 118 40z"/>
<path d="M6770 2750 c-8 -5 -15 -26 -17 -47 -4 -68 -16 -95 -72 -156 -156
-172 -322 -211 -881 -211 -228 0 -412 6 -550 19 -19 2 -66 6 -105 9 -38 4 -86
9 -105 11 -19 3 -55 7 -80 10 -40 5 -108 16 -180 30 -64 12 -79 14 -135 20
-33 4 -76 9 -95 11 -42 4 -287 4 -346 -1 -72 -5 -108 -42 -80 -81 11 -15 41
-17 247 -19 129 -1 252 -5 274 -9 22 -4 78 -13 125 -22 96 -17 110 -19 218
-33 114 -15 167 -21 262 -27 47 -3 101 -8 120 -10 71 -10 688 -12 780 -3 143
13 277 37 351 63 126 44 274 168 325 272 30 61 37 142 15 168 -15 18 -48 21
-71 6z"/>
</g>
</svg>
